PathFileType	4	(X/Y/Z)	pose_F01_0-87.trc
DataRate	CameraRate	NumFrames	NumMarkers	Units	OrigDataRate	OrigDataStartFrame	OrigNumFrames
30	30	8	21	m	30	24	87
Frame#	Time	CHip			RHip			RKnee			RAnkle			RBigToe			RSmallToe			RHeel			LHip			LKnee			LAnkle			LBigToe			LSmallToe			LHeel			Neck			Nose			RShoulder			RElbow			RWrist			LShoulder			LElbow			LWrist			
		X1	Y1	Z1	X2	Y2	Z2	X3	Y3	Z3	X4	Y4	Z4	X5	Y5	Z5	X6	Y6	Z6	X7	Y7	Z7	X8	Y8	Z8	X9	Y9	Z9	X10	Y10	Z10	X11	Y11	Z11	X12	Y12	Z12	X13	Y13	Z13	X14	Y14	Z14	X15	Y15	Z15	X16	Y16	Z16	X17	Y17	Z17	X18	Y18	Z18	X19	Y19	Z19	X20	Y20	Z20	X21	Y21	Z21	
24	0.8	-0.24462317117318383	1.8803672744548854	-0.5107412874635142	-0.25762328331776285	1.8770281825024653	-0.44785683032513135	-0.2752420955322108	1.7218084142251557	-0.4468565402015232													-0.2283438626421072	1.884044493164787	-0.5845285613098442	-0.22015066244839976	1.7318778908302843	-0.5649924241377416	-0.21419529912078994	1.5884750560125473	-0.5659716355958448	-0.2145474791724361	1.5566853763344706	-0.6395106963043677	-0.20504560261600624	1.5658261289811868	-0.6506416055631608	-0.2150145164003279	1.5758781853237445	-0.5381019834356126	-0.24221539413014326	2.051258377816545	-0.5241010492426162	-0.25083675012526885	2.120500308886837	-0.5677186299591892	-0.26347235338930636	2.048113899104578	-0.432214563003325	-0.26775679471703895	1.9588697379390398	-0.39046711805760925	-0.28065550944869117	1.8770808433531576	-0.38633709871710115	-0.2181355395491602	2.0531810873271166	-0.6156305932778671	-1.4413016622877128	1.8710623660969867	0.6746743304671556	-0.20611434902166495	1.887312570107027	-0.6417054158341166
25	0.8333333333333334	-0.24487315759821113	1.8793810127922632	-0.5105032583807549	-0.2608560550676432	1.8746682540554191	-0.44845093616417314	-0.2752420955322108	1.7218084142251557	-0.4468565402015232													-0.22845311948493624	1.8818710874375923	-0.5841006915582254	-0.2211089885406191	1.7285886919352396	-0.5679485523324267	-0.21403934270700006	1.5878418666464047	-0.5659725459205355	-0.21445226611290016	1.5562602932613878	-0.639450243658271	-0.20490751202097496	1.5652056963391983	-0.6505489784441023	-0.21500735914694474	1.5763899215229022	-0.5378342552892019	-0.24225193271125373	2.051283234285258	-0.5240592705359101	-0.25083794599921916	2.1217870689929605	-0.5683166423824196	-0.26536176999817296	2.0480467784391143	-0.43014812253198276	-0.2686405101194969	1.9565429853329976	-0.3928864648044973	-0.2789341280168608	1.8788509247276144	-0.38877141390746445	-0.21616008720366245	2.053194691067973	-0.6177500025604645	-1.4413016622877128	1.8710623660969867	0.6746743304671556	-0.20611434902166495	1.887312570107027	-0.6417054158341166
26	0.8666666666666667	-0.24698788707487718	1.8781214781000481	-0.5167912291532447	-0.26088111728322416	1.8744274465982338	-0.44854972065672455	-0.2752420955322108	1.7218084142251557	-0.4468565402015232													-0.22872877157136223	1.881407464521503	-0.5842761240397352	-0.21970323345517775	1.7294896603346772	-0.5737880475734409	-0.21396644825207384	1.5873327354480233	-0.5659801334748367	-0.21439999568002918	1.5560502106026801	-0.6394945678168233	-0.20281193677453688	1.565223424358436	-0.652702245155688	-0.2150154002333035	1.5761912523707973	-0.5378363858765338	-0.24211193560188704	2.0511900403023877	-0.5235803553905335	-0.2527492370084495	2.122033821785031	-0.5663509151409263	-0.2635434068304554	2.04807729540669	-0.43220354610199374	-0.26655999659276114	1.9556517606193466	-0.3864473598219058	-0.27985952032184735	1.8759690508262337	-0.39164936537304923	-0.21599469121033277	2.0531195685318604	-0.6173402989497363	-1.4413016622877128	1.8710623660969867	0.6746743304671556	-0.20611434902166495	1.887312570107027	-0.6417054158341166
27	0.9	-0.24677680692304907	1.8796028078937936	-0.5170068566460976	-0.2607161390808499	1.8762378089146032	-0.4487841350946013	-0.2752420955322108	1.7218084142251557	-0.4468565402015232													-0.2285224160706936	1.8831448398787636	-0.5844061323681721	-0.2226111971558272	1.7312313693491383	-0.5752803852542139	-0.21395473471757814	1.5870349333242801	-0.5660403538699937	-0.21432274672533355	1.5558249293034245	-0.6394654566677938	-0.20480020949026329	1.5647463370985826	-0.6505655521318425	-0.21502344131966225	1.5759925832186923	-0.5378385164638657	-0.24216103706315392	2.050078414623526	-0.5237143890485098	-0.25167463098940557	2.1247276452453456	-0.571700142786247	-0.263510242401967	2.0480606897046827	-0.43220436552840313	-0.26582739407526995	1.9568752666002225	-0.39213728179545265	-0.2843073012508564	1.885271766951536	-0.3980124016062866	-0.21394380303079116	2.0532674901886847	-0.6195266949551296	-1.46825114947625	1.873441585993511	0.7198186813375879	-0.204531768777655	1.8894971065699673	-0.6446935810014325
28	0.9333333333333333	-0.24831799226103146	1.8801196859317475	-0.5236327937634849	-0.260318660700579	1.877348360836358	-0.45732161961886464	-0.2752420955322108	1.7218084142251557	-0.4468565402015232													-0.22804961939307358	1.882668487390287	-0.5844624430248283	-0.22121960524699877	1.7282057038882312	-0.5808943115463182	-0.2130187236622076	1.5904545580858547	-0.5630150659469584	-0.2161191995655156	1.5564406647149909	-0.6377065897062297	-0.2039359757890222	1.567632810258144	-0.6476398160788374	-0.21355739012150915	1.57683886306368	-0.534753230279971	-0.24308921227427477	2.0525124707744875	-0.527063900110909	-0.25267091775738565	2.1245012410249404	-0.5666861965180581	-0.2645970705538846	2.0482688597207277	-0.435447420576897	-0.267873500645911	1.9677137548950867	-0.42410993849313966	-0.29679510575713747	1.9160391504851249	-0.41725822209982655	-0.21606063681109586	2.0544053258336272	-0.6176896795702401	-1.4713526517147961	1.874336297199361	0.7288567053290914	-0.20299526974895551	1.8962660889428882	-0.6513398331326794
29	0.9666666666666667	-0.2475131328846552	1.8787996135564693	-0.5288643079145692	-0.26146969412187826	1.8772475515154388	-0.4605665412525256	-0.2752420955322108	1.7218084142251557	-0.4468565402015232													-0.2290082566590158	1.8838501353084824	-0.5876898492775774	-0.22754058588463563	1.7319827759065076	-0.6045813863647279	-0.21443136399371118	1.5874230178181865	-0.5697114612770401	-0.2161458599095441	1.556501126184321	-0.6379289475139982	-0.20353336603299757	1.565588008633802	-0.6480424849061529	-0.21534351880555724	1.5777258476234348	-0.5332690661782944	-0.24209075808150252	2.0512346460955153	-0.5236032216563631	-0.2545783606825013	2.1234746363951875	-0.5721700046422287	-0.26352186457489307	2.047925799413998	-0.43229750377398146	-0.2631665409387637	1.966516403382566	-0.41796822763345043	-0.3033589159700356	1.959821600672237	-0.4324739806793145	-0.21609242942738519	2.0543155904069823	-0.6177172677982535	-1.4588328865389932	1.8734606894143613	0.7119339913120244	-0.20694005043046712	1.9134646407481672	-0.6782419434942465
30	1.0	-0.2483889778654735	1.8769958666230697	-0.5320415695174893	-0.2645883159146031	1.876830032641468	-0.4703742637334922	-0.2752420955322108	1.7218084142251557	-0.4468565402015232													-0.23262047665793242	1.8830671055044665	-0.600295956569716	-0.2291687783014565	1.727235706335389	-0.6154294897548969	-0.2148472754482294	1.5870152733501193	-0.56924146262452	-0.21630059916898992	1.5568620756031228	-0.6379815553993119	-0.2048685690480623	1.5676635076350993	-0.6508441561252983	-0.21359248696789546	1.5766790474382752	-0.5347744491168289	-0.24288718802940726	2.044263933109011	-0.5243314866572615	-0.2527170458125478	2.1218419337660586	-0.5736456581523984	-0.2654805873129918	2.040938787319444	-0.43589905450904837	-0.27894802343492614	1.9887105256704822	-0.42098979066092046	-0.3099227261829337	2.0036040508593493	-0.4476897392588024	-0.21461726876356868	2.047767320853123	-0.6207050857334384	-1.422362397494004	1.8703090042550812	0.6530957179822111	-0.21156115451175114	1.9416506500130037	-0.7105440547087996
31	1.0333333333333334	-0.24590223159330088	1.879566100223625	-0.5401229767033521	-0.2651493348451595	1.8759810779500907	-0.4792539871284139	-0.2752420955322108	1.7218084142251557	-0.4468565402015232													-0.23034038781854907	1.8847589967453005	-0.6086121420504496	-0.22359082782590317	1.7267677810805708	-0.6253350350309567	-0.2149515080036357	1.5878351039133651	-0.569093986608884	-0.21628601229050476	1.5570905840216176	-0.6380124028801677	-0.20245413657971642	1.5662605885142236	-0.6533219074764245	-0.21454683278842632	1.5769994452250455	-0.5376985705117489	-0.24110421194434362	2.0454799998802327	-0.527748026444356	-0.2508670482015376	2.119760884508161	-0.5769185634171154	-0.2638808480942452	2.04496881900395	-0.44822459511696944	-0.29472950593108854	2.0109046479583985	-0.42401135368839055	-0.3164865363958318	2.0473865010464616	-0.4629054978382904	-0.21186055331808312	2.0475422093750626	-0.6205523993793431	-1.4474270579449844	1.8735061837297273	0.6939020159354593	-0.21254245780779243	1.9646297230610243	-0.6998869960398786
